<?xml version="1.0" standalone="no"?>
<!DOCTYPE svg PUBLIC "-//W3C//DTD SVG 20010904//EN"
 "http://www.w3.org/TR/2001/REC-SVG-20010904/DTD/svg10.dtd">
<svg version="1.0" xmlns="http://www.w3.org/2000/svg"
 width="915.000000pt" height="206.000000pt" viewBox="0 0 915.000000 206.000000"
 preserveAspectRatio="xMidYMid meet">

<g transform="translate(0.000000,206.000000) scale(0.100000,-0.100000)"
fill="#000000" stroke="none">
<path d="M4230 1544 c-104 -28 -189 -95 -232 -183 -19 -38 -23 -62 -23 -141 0
-85 3 -100 27 -141 55 -93 119 -134 321 -204 158 -56 187 -77 187 -136 0 -51
-35 -79 -100 -79 -59 0 -97 27 -106 75 l-6 35 -166 0 -165 0 6 -49 c23 -193
226 -322 482 -308 235 13 385 148 385 346 0 71 -12 114 -46 163 -51 73 -113
108 -361 202 -90 34 -133 72 -133 115 0 97 148 109 181 16 l13 -35 169 0 169
0 -7 33 c-31 156 -122 251 -278 293 -68 18 -246 17 -317 -2z"/>
<path d="M650 1425 l0 -125 150 0 150 0 0 -440 0 -440 155 0 155 0 0 440 0
440 150 0 150 0 0 125 0 125 -455 0 -455 0 0 -125z"/>
<path d="M1720 985 l0 -565 155 0 155 0 0 210 c0 280 0 280 150 0 l112 -210
173 0 174 0 -125 216 c-68 118 -124 217 -124 219 0 3 24 16 54 30 67 32 127
90 157 153 34 72 38 198 8 277 -45 120 -158 203 -305 225 -38 5 -185 10 -326
10 l-258 0 0 -565z m529 289 c63 -25 86 -89 57 -159 -22 -51 -58 -65 -176 -65
l-100 0 0 120 0 120 90 0 c58 0 103 -6 129 -16z"/>
<path d="M2820 1166 c0 -348 2 -390 19 -445 65 -208 245 -322 486 -308 184 11
316 87 398 228 52 90 57 134 57 538 l0 371 -155 0 -155 0 0 -358 c0 -351 0
-359 -22 -402 -59 -116 -242 -119 -302 -5 -20 38 -21 57 -24 403 l-3 362 -150
0 -149 0 0 -384z"/>
<path d="M4970 1425 l0 -124 148 -3 147 -3 3 -437 2 -438 150 0 150 0 2 438 3
437 153 3 152 3 0 124 0 125 -455 0 -455 0 0 -125z"/>
<path d="M6040 985 l0 -565 155 0 155 0 0 565 0 565 -155 0 -155 0 0 -565z"/>
<path d="M6570 985 l0 -565 155 0 155 0 0 220 0 220 165 0 165 0 0 120 0 120
-165 0 -165 0 0 100 0 100 225 0 225 0 0 125 0 125 -380 0 -380 0 0 -565z"/>
<path d="M7430 1543 c0 -5 88 -178 195 -386 l195 -378 0 -180 0 -179 155 0
155 0 0 178 0 177 198 385 199 385 -166 3 c-91 1 -170 1 -176 -2 -5 -2 -53
-99 -105 -215 -52 -116 -98 -211 -101 -211 -3 0 -50 97 -104 215 l-98 215
-173 0 c-96 0 -174 -3 -174 -7z"/>
</g>
</svg>
