<?xml version="1.0" standalone="no"?>
<!DOCTYPE svg PUBLIC "-//W3C//DTD SVG 20010904//EN"
 "http://www.w3.org/TR/2001/REC-SVG-20010904/DTD/svg10.dtd">
<svg version="1.0" xmlns="http://www.w3.org/2000/svg"
 width="1200.000000pt" height="1920.000000pt" viewBox="0 0 1200.000000 1920.000000"
 preserveAspectRatio="xMidYMid meet">

<g transform="translate(0.000000,1920.000000) scale(0.100000,-0.100000)"
fill="#000000" stroke="none">
<path d="M0 14114 c0 -4065 3 -5085 13 -5081 6 3 62 26 122 52 61 25 124 52
140 60 17 7 134 57 260 110 127 53 259 110 295 125 36 15 119 50 185 78 115
48 355 149 680 287 83 35 208 88 279 117 120 51 130 57 143 91 l15 36 -87 153
c-48 84 -104 182 -125 218 -38 65 -315 553 -353 620 -10 19 -36 64 -57 100
-44 76 -187 333 -207 373 -15 29 -41 47 -68 47 -9 0 -24 9 -33 20 -14 16 -38
21 -141 30 -69 6 -127 12 -129 15 -10 10 71 14 153 7 88 -7 91 -7 129 20 21
16 43 28 48 28 14 0 27 -44 15 -52 -13 -8 12 -69 58 -143 18 -28 43 -70 57
-95 14 -25 122 -214 240 -420 118 -206 225 -393 237 -415 12 -22 41 -74 65
-115 24 -41 58 -100 74 -130 115 -209 139 -245 170 -248 25 -3 34 3 49 25 10
15 22 33 26 38 5 6 50 71 102 145 145 209 313 448 445 635 55 77 280 401 344
495 34 50 66 87 66 77 0 -4 -24 -40 -53 -80 -30 -39 -59 -82 -65 -94 -7 -12
-18 -27 -24 -35 -7 -7 -40 -53 -74 -103 -51 -75 -225 -326 -505 -728 -30 -42
-80 -114 -111 -160 -32 -45 -61 -87 -65 -92 -42 -54 -93 -136 -93 -149 0 -9
-6 -16 -14 -16 -8 0 -16 -7 -20 -15 -8 -21 4 -47 19 -41 7 2 101 -89 210 -202
366 -382 428 -446 550 -572 66 -69 170 -177 230 -240 60 -63 163 -171 230
-240 66 -69 215 -224 330 -345 116 -121 266 -278 335 -350 69 -71 177 -184
240 -250 63 -66 178 -185 255 -265 77 -80 199 -206 270 -281 369 -384 340
-357 379 -350 32 5 41 16 95 101 33 52 70 113 83 135 33 54 106 172 290 470
170 275 233 377 274 445 41 67 302 489 332 535 48 75 70 110 373 600 166 270
347 562 402 650 207 333 206 329 102 326 -196 -6 -753 -23 -1030 -31 -337 -10
-811 -24 -1190 -35 -99 -3 -414 -12 -700 -20 -286 -8 -583 -17 -660 -20 -204
-8 -1175 -35 -1277 -35 -49 0 -88 4 -88 9 0 11 74 13 1900 66 283 8 580 17
660 20 80 3 388 12 685 21 297 8 680 19 852 24 172 5 424 12 560 15 289 7 353
12 352 28 0 7 -26 35 -58 62 -78 68 -662 590 -901 805 -107 97 -301 270 -430
385 -129 115 -237 212 -240 215 -3 3 -70 64 -150 135 -80 71 -147 132 -150
135 -3 3 -25 23 -50 44 -25 22 -85 76 -135 121 -49 45 -153 137 -230 205 -77
68 -142 126 -145 130 -3 3 -90 82 -195 174 -104 93 -194 174 -200 180 -5 6
-34 32 -63 58 -46 41 -57 46 -86 41 -41 -6 -76 11 -76 37 0 13 -9 21 -27 25
-33 7 -103 23 -313 72 -85 19 -193 44 -239 54 -45 10 -86 20 -89 23 -11 12 38
5 178 -25 80 -17 186 -39 235 -49 50 -10 126 -27 171 -38 118 -27 141 -13 124
79 -6 29 -10 59 -10 68 0 32 18 -11 25 -61 4 -27 15 -58 25 -70 13 -16 15 -29
9 -50 -7 -25 -4 -30 22 -44 16 -8 116 -92 222 -187 238 -212 568 -507 622
-556 22 -20 81 -72 130 -116 84 -74 119 -105 250 -225 28 -25 91 -81 140 -125
50 -43 128 -113 175 -156 47 -42 135 -121 195 -175 132 -118 274 -245 289
-259 6 -5 52 -46 101 -90 50 -44 92 -82 95 -85 4 -5 331 -296 645 -575 61 -54
119 -106 130 -116 13 -11 29 -16 42 -13 19 5 25 26 58 197 20 106 50 257 65
337 16 80 48 244 71 365 82 431 259 1299 253 1245 -5 -51 -24 -162 -59 -335
-8 -38 -53 -272 -100 -520 -98 -513 -134 -701 -201 -1039 -33 -170 -44 -244
-37 -255 7 -11 6 -23 -5 -39 -12 -19 -13 -28 -4 -42 8 -13 8 -20 0 -22 -10 -4
-4 -238 18 -708 5 -117 15 -367 40 -975 15 -380 18 -411 35 -423 18 -12 18
-15 4 -35 -18 -26 -19 -42 -2 -59 16 -16 10 -7 257 -433 111 -192 225 -388
252 -435 28 -47 67 -114 88 -150 87 -149 550 -947 635 -1095 51 -88 106 -183
123 -211 18 -28 32 -54 32 -58 0 -4 8 -19 19 -34 10 -15 56 -92 101 -172 116
-202 138 -241 209 -358 33 -56 61 -105 61 -109 0 -3 26 -49 59 -102 32 -53 84
-142 115 -198 63 -113 75 -126 106 -121 22 3 22 3 284 513 146 284 259 503
341 660 34 66 100 192 145 280 118 229 233 452 305 590 34 66 104 201 155 300
51 99 124 241 163 315 38 74 103 200 145 280 41 80 99 191 129 247 48 92 53
105 41 125 -7 13 -12 25 -11 28 1 3 -49 5 -110 5 -149 0 -471 14 -577 24 -47
5 -89 7 -93 4 -4 -2 -155 2 -335 11 -694 34 -986 47 -1522 71 -305 14 -591 27
-635 30 -44 2 -158 7 -253 11 -98 4 -175 11 -179 17 -8 13 60 10 1887 -73 239
-11 597 -26 795 -35 325 -13 548 -24 900 -41 106 -5 118 -4 105 9 -16 15 -233
148 -845 517 -203 123 -419 253 -480 290 -190 116 -567 345 -630 382 -33 19
-132 79 -220 133 -88 54 -257 156 -375 228 -118 71 -278 168 -355 215 -77 46
-205 124 -285 172 -144 86 -325 197 -512 312 -54 33 -98 64 -98 70 0 14 17 6
99 -46 39 -25 74 -46 78 -46 3 0 52 -28 107 -63 96 -60 234 -145 376 -229 36
-22 119 -72 185 -113 66 -41 152 -93 190 -115 39 -22 124 -74 190 -115 66 -41
154 -95 195 -119 41 -23 133 -79 204 -122 70 -43 140 -86 156 -95 15 -9 96
-58 181 -109 85 -51 177 -107 204 -125 28 -18 93 -57 145 -88 52 -31 165 -99
250 -152 85 -52 174 -105 198 -117 23 -12 42 -26 42 -30 0 -4 5 -8 12 -8 6 0
57 -28 112 -63 153 -96 372 -228 515 -312 133 -77 376 -229 379 -236 2 -4 15
-1 30 7 15 8 34 14 42 14 9 0 79 114 179 293 90 160 181 321 201 357 21 36 67
117 102 180 36 63 111 195 167 293 l101 177 0 261 c0 199 -3 261 -12 264 -7 2
-152 18 -323 35 -366 36 -909 91 -1190 120 -110 11 -265 27 -345 35 -136 14
-210 21 -585 60 -82 8 -253 26 -380 40 -126 13 -347 36 -490 50 -143 13 -406
41 -585 60 -179 20 -364 38 -412 42 -56 4 -85 10 -81 16 4 7 -1 8 -12 3 -24
-9 -205 13 -205 25 0 11 18 11 100 -1 36 -5 117 -14 180 -20 145 -13 628 -63
1310 -135 80 -9 188 -20 240 -25 52 -6 156 -17 230 -25 74 -8 227 -24 340 -35
113 -11 264 -27 335 -35 72 -8 261 -28 420 -45 160 -16 333 -34 385 -40 52 -5
160 -17 240 -25 80 -8 206 -22 280 -30 74 -8 203 -22 285 -30 83 -8 178 -18
213 -21 l62 -7 0 154 0 154 -101 125 c-56 69 -147 181 -202 250 -56 69 -178
219 -271 334 -94 115 -202 248 -239 295 -37 47 -76 95 -85 106 -9 11 -46 58
-82 105 -36 47 -68 87 -73 88 -4 2 -12 13 -18 25 -14 29 48 -38 146 -158 44
-54 109 -133 145 -175 36 -42 117 -141 180 -220 63 -80 117 -147 120 -150 3
-3 50 -61 105 -130 155 -194 366 -450 371 -450 2 0 4 2079 4 4620 l0 4620
-6000 0 -6000 0 0 -5086z m9337 930 c-9 -9 -28 6 -21 18 4 6 10 6 17 -1 6 -6
8 -13 4 -17z m-5509 -116 c20 -17 14 -45 -12 -52 -32 -8 -54 1 -61 25 -14 42
33 59 73 27z m3756 -351 c22 -16 18 -55 -6 -71 -14 -8 -24 -7 -45 6 -34 20
-39 40 -18 62 20 19 45 21 69 3z m4230 -408 c13 -6 27 -20 29 -30 6 -24 2 -24
-23 1 -11 11 -29 20 -41 20 -11 0 -17 5 -14 10 8 13 18 13 49 -1z m-1152 -376
c10 -9 18 -30 18 -50 0 -28 -4 -33 -23 -33 -22 0 -77 42 -77 60 0 40 48 54 82
23z m-5060 -310 c29 -34 29 -53 2 -63 -32 -13 -30 -13 -48 6 -9 8 -16 29 -16
45 0 24 4 29 23 29 13 0 31 -8 39 -17z m-3905 -39 c9 -24 -27 -74 -54 -74 -21
0 -42 52 -29 73 13 20 75 21 83 1z m2472 -339 c0 -5 -4 -3 -9 5 -5 8 -9 22 -9
30 0 16 17 -16 18 -35z m174 -262 c-7 -2 -21 -2 -30 0 -10 3 -4 5 12 5 17 0
24 -2 18 -5z m345 -20 c-10 -2 -26 -2 -35 0 -10 3 -2 5 17 5 19 0 27 -2 18 -5z
m2578 -13 c21 -10 32 -19 24 -20 -8 0 -28 9 -45 20 -38 25 -30 25 21 0z
m-3146 0 c0 -5 -8 -10 -17 -10 -15 0 -16 2 -3 10 19 12 20 12 20 0z m843 -7
c-18 -2 -48 -2 -65 0 -18 2 -4 4 32 4 36 0 50 -2 33 -4z m-915 -24 c-79 -41
-290 -131 -295 -125 -3 3 11 13 33 22 21 9 68 29 104 46 36 16 83 37 105 45
22 9 44 20 50 25 5 4 16 8 25 8 8 -1 -2 -10 -22 -21z m1090 14 c-16 -2 -40 -2
-55 0 -16 2 -3 4 27 4 30 0 43 -2 28 -4z m2207 -13 c19 -8 19 -9 -2 -9 -12 -1
-25 4 -28 9 -7 12 2 12 30 0z m98 -34 c40 -17 211 -80 256 -95 44 -14 81 6 82
47 l1 27 8 -28 c5 -16 13 -34 19 -41 14 -17 7 -78 -11 -105 -14 -20 -17 -21
-32 -6 -9 9 -21 25 -26 35 -5 10 -24 21 -41 25 -17 4 -33 14 -36 22 -6 16
-102 63 -128 63 -8 0 -15 5 -15 10 0 6 -7 10 -15 10 -8 0 -29 6 -47 14 -18 8
-44 19 -58 24 -19 8 -21 11 -7 11 11 1 33 -5 50 -13z m-1640 -3 c-7 -2 -21 -2
-30 0 -10 3 -4 5 12 5 17 0 24 -2 18 -5z m-2077 -102 c-8 -12 -217 -104 -223
-98 -3 3 10 12 28 20 33 14 103 45 164 72 37 17 37 17 31 6z m-236 -106 c0 -2
-17 -11 -37 -20 -21 -9 -50 -23 -65 -31 -16 -9 -28 -11 -28 -6 0 4 24 20 53
34 51 24 77 33 77 23z m-144 -64 c-9 -14 -66 -32 -66 -20 0 5 9 9 19 9 11 0
23 5 26 10 3 6 11 10 16 10 6 0 8 -4 5 -9z m-81 -41 c-3 -5 -14 -10 -23 -10
-15 0 -15 2 -2 10 20 13 33 13 25 0z m-69 -25 c-11 -8 -27 -15 -35 -15 -9 1
-2 7 14 15 39 18 44 18 21 0z m-56 -23 c0 -9 -61 -34 -68 -28 -4 4 46 33 61
35 4 1 7 -3 7 -7z m-95 -42 c-3 -5 -12 -10 -18 -10 -7 0 -6 4 3 10 19 12 23
12 15 0z m-35 -15 c0 -8 -92 -47 -97 -41 -3 3 7 11 23 17 16 6 38 15 49 19 25
11 25 11 25 5z m-110 -50 c0 -7 -87 -45 -102 -45 -7 0 10 12 37 25 50 25 65
29 65 20z m-133 -61 c-3 -3 -12 -4 -19 -1 -8 3 -5 6 6 6 11 1 17 -2 13 -5z
m-67 -28 c0 -2 -7 -7 -16 -10 -8 -3 -12 -2 -9 4 6 10 25 14 25 6z m-94 -45
c-6 -9 -56 -22 -56 -14 0 4 40 21 53 22 5 1 6 -3 3 -8z m-76 -31 c0 -5 -8 -10
-17 -10 -15 0 -16 2 -3 10 19 12 20 12 20 0z m-73 -36 c-3 -3 -12 -4 -19 -1
-8 3 -5 6 6 6 11 1 17 -2 13 -5z m-530 -230 c-3 -3 -12 -4 -19 -1 -8 3 -5 6 6
6 11 1 17 -2 13 -5z m1546 -49 c-3 -9 -8 -14 -10 -11 -3 3 -2 9 2 15 9 16 15
13 8 -4z m-32 -48 c-10 -9 -11 -8 -5 6 3 10 9 15 12 12 3 -3 0 -11 -7 -18z
m-30 -40 c-10 -9 -11 -8 -5 6 3 10 9 15 12 12 3 -3 0 -11 -7 -18z m-50 -74
c-12 -20 -14 -14 -5 12 4 9 9 14 11 11 3 -2 0 -13 -6 -23z m-36 -54 c-9 -17
-19 -29 -22 -26 -5 5 25 57 33 57 3 0 -3 -14 -11 -31z m-2542 -6 c-13 -2 -33
-2 -45 0 -13 2 -3 4 22 4 25 0 35 -2 23 -4z m97 -2 c0 -4 -11 -6 -25 -3 -14 2
-25 6 -25 8 0 2 11 4 25 4 14 0 25 -4 25 -9z m9915 -121 c-5 -22 1 -34 30 -63
19 -19 35 -39 35 -43 -1 -5 -9 0 -18 12 -23 27 -60 47 -76 41 -18 -7 -66 40
-66 64 0 11 11 24 25 31 13 6 27 20 31 31 5 17 8 16 26 -13 13 -22 17 -41 13
-60z m-7537 30 c-18 -27 -36 -50 -41 -50 -4 0 8 22 25 50 18 27 36 50 41 50 4
0 -8 -22 -25 -50z m7637 -176 c9 -15 12 -23 6 -20 -11 7 -35 46 -28 46 3 0 12
-12 22 -26z m-1995 -588 c0 -2 -7 -7 -16 -10 -8 -3 -12 -2 -9 4 6 10 25 14 25
6z m-330 -136 c-8 -5 -19 -10 -25 -10 -5 0 -3 5 5 10 8 5 20 10 25 10 6 0 3
-5 -5 -10z m-41 -13 c-4 -4 -174 -71 -224 -90 -16 -5 -34 -14 -40 -18 -5 -3
-26 -10 -45 -13 -19 -4 34 20 119 53 84 33 156 62 159 65 3 4 12 6 20 6 9 0
13 -2 11 -3z m-354 -135 c-23 -19 -315 -134 -315 -123 0 3 37 20 83 38 45 18
114 45 152 62 72 30 97 38 80 23z m-371 -153 c-58 -20 -147 -54 -189 -73 -16
-8 -41 -17 -55 -21 -14 -4 -43 -16 -65 -25 -72 -32 -127 -51 -133 -46 -2 3 8
10 24 16 40 15 272 106 369 145 44 17 84 30 89 27 5 -3 -13 -13 -40 -23z"/>
<path d="M7239 9968 c-41 -65 -147 -237 -293 -475 -60 -98 -163 -264 -216
-348 -21 -33 -79 -127 -130 -210 -51 -82 -127 -206 -170 -275 -43 -69 -126
-204 -185 -300 -59 -96 -140 -227 -180 -290 -40 -63 -195 -313 -345 -555 -149
-242 -300 -484 -334 -537 -67 -107 -136 -235 -136 -253 0 -7 11 -25 25 -41 14
-16 25 -32 25 -36 0 -4 14 -31 31 -60 28 -46 115 -202 191 -338 14 -25 69
-124 123 -220 54 -96 108 -193 120 -215 21 -39 130 -233 172 -305 11 -19 51
-91 88 -160 38 -69 77 -138 86 -155 10 -16 32 -57 50 -90 17 -33 46 -85 64
-115 89 -150 155 -274 152 -284 -2 -6 -12 7 -22 29 -11 22 -25 46 -32 53 -7 7
-13 20 -13 28 0 8 -3 14 -7 14 -5 0 -17 20 -28 45 -11 25 -23 45 -26 45 -4 0
-10 13 -14 30 -4 16 -10 30 -14 30 -3 0 -22 30 -40 68 -19 37 -39 74 -46 82
-7 8 -25 40 -41 70 -16 30 -35 61 -41 68 -7 7 -13 17 -13 22 0 4 -31 61 -68
126 -38 66 -82 144 -99 174 -16 30 -63 114 -103 185 -40 72 -84 150 -98 175
-14 25 -60 106 -102 180 -42 74 -93 164 -112 200 -19 36 -61 109 -92 163 -31
53 -60 105 -63 115 -11 29 -46 72 -59 72 -7 0 -16 -5 -19 -10 -6 -10 -41 -134
-117 -415 -22 -82 -47 -172 -55 -200 -8 -27 -28 -102 -44 -165 -17 -63 -51
-187 -76 -275 -24 -88 -46 -168 -48 -177 -5 -22 -54 -208 -61 -227 -2 -8 -7
-12 -9 -9 -3 3 6 47 20 99 15 52 35 127 46 167 10 39 29 107 40 150 12 42 39
142 60 222 54 197 84 307 115 420 117 429 115 415 84 448 -25 27 42 27 -742 2
-348 -10 -797 -24 -998 -30 -201 -6 -502 -15 -670 -20 -167 -5 -308 -6 -312
-4 -26 16 28 21 274 27 545 14 1690 47 1958 57 151 5 318 10 371 10 73 0 100
4 109 15 13 16 0 32 -230 268 -74 75 -137 142 -140 147 -3 5 -60 65 -125 132
-66 68 -219 227 -340 353 -233 244 -371 388 -575 600 -69 72 -183 191 -254
265 -71 74 -179 187 -240 250 -61 63 -205 214 -321 335 -627 657 -750 781
-753 763 -3 -15 54 -914 83 -1323 17 -238 88 -1321 106 -1615 11 -188 13 -196
37 -222 14 -16 20 -28 14 -28 -22 0 -37 -47 -23 -73 6 -12 27 -74 45 -137 19
-63 61 -206 95 -317 162 -538 185 -615 213 -708 16 -55 37 -127 47 -160 66
-213 141 -464 177 -590 19 -66 39 -129 43 -140 5 -11 23 -72 41 -135 18 -63
36 -124 40 -135 10 -25 91 -301 98 -335 2 -14 2 -22 -2 -19 -5 5 -37 102 -71
219 -7 25 -31 104 -53 175 -22 72 -61 202 -87 290 -26 88 -51 171 -56 185 -8
23 -25 77 -108 360 -33 110 -55 182 -120 395 -21 72 -49 164 -61 205 -12 41
-33 109 -45 150 -13 41 -40 129 -60 195 -139 457 -144 473 -155 480 -13 8 -36
-30 -75 -123 -18 -44 -45 -104 -58 -134 -14 -29 -41 -89 -60 -133 -96 -220
-374 -850 -407 -925 -21 -47 -81 -184 -135 -305 -137 -310 -228 -517 -338
-765 -52 -118 -121 -273 -152 -345 -31 -71 -93 -211 -137 -310 -44 -99 -88
-198 -98 -220 -70 -158 -90 -208 -84 -216 3 -5 -4 -21 -16 -36 -13 -17 -19
-35 -16 -49 5 -20 20 -181 66 -719 11 -126 27 -304 35 -395 8 -91 22 -244 30
-340 9 -96 20 -224 25 -285 6 -60 15 -164 20 -229 6 -65 17 -196 25 -290 9
-94 22 -247 30 -341 7 -93 19 -230 26 -302 l13 -133 360 0 361 0 36 33 c74 66
142 122 152 126 6 2 20 14 31 26 19 20 72 66 221 192 125 104 284 238 325 273
25 21 124 105 220 185 283 238 403 339 435 366 93 82 136 118 175 149 24 19
60 49 79 66 98 85 269 229 289 242 32 21 44 56 30 87 -6 14 -15 25 -20 25 -5
0 -43 15 -86 34 -42 19 -162 71 -267 116 -177 76 -285 123 -395 173 -45 20
-510 221 -790 342 -80 35 -217 94 -305 133 -504 220 -676 295 -902 393 -101
43 -173 80 -173 88 0 7 6 11 13 8 27 -11 324 -140 362 -157 22 -10 110 -48
195 -85 85 -36 163 -70 172 -75 9 -5 59 -27 110 -49 51 -21 167 -72 258 -111
91 -40 199 -87 240 -105 41 -18 98 -42 125 -55 88 -38 116 -51 345 -150 124
-54 272 -119 330 -145 58 -25 231 -100 385 -167 154 -66 309 -134 344 -150
l64 -29 28 20 c36 27 55 26 69 0 9 -16 9 -28 0 -50 -7 -16 -10 -38 -7 -49 4
-17 0 -20 -30 -20 -38 0 -85 -24 -120 -62 -11 -13 -38 -36 -59 -53 -21 -16
-57 -46 -79 -65 -22 -20 -94 -81 -160 -135 -66 -55 -133 -112 -150 -126 -47
-41 -378 -322 -399 -339 -20 -16 -199 -168 -336 -285 -145 -124 -304 -258
-355 -300 -68 -56 -118 -98 -133 -112 -7 -7 -62 -53 -122 -104 -61 -50 -110
-93 -110 -95 0 -2 931 -4 2069 -4 l2068 0 34 30 c19 16 37 30 41 30 4 0 20 12
35 26 15 15 44 38 63 53 19 14 64 50 100 79 97 80 100 82 106 82 3 0 11 6 19
13 7 7 50 42 95 78 130 101 213 168 238 191 12 11 22 16 22 10 0 -5 -21 -27
-47 -47 -27 -21 -52 -43 -58 -50 -5 -6 -26 -22 -45 -35 -37 -26 -60 -45 -119
-97 -20 -18 -41 -33 -48 -33 -7 0 -16 -6 -20 -14 -4 -7 -44 -42 -88 -76 -44
-35 -82 -66 -85 -70 -3 -3 -43 -35 -89 -71 -46 -35 -93 -72 -105 -81 -20 -17
98 -18 2267 -18 1902 0 2287 2 2287 13 0 8 -21 94 -46 191 -25 98 -43 180 -40
183 3 3 8 -8 12 -23 12 -51 31 -126 63 -242 17 -62 31 -115 31 -117 0 -3 111
-4 247 -3 l246 3 46 61 c42 55 184 248 410 554 46 63 114 156 151 205 37 50
119 161 183 247 l117 157 0 1996 c0 1421 -3 1995 -11 1995 -6 0 -38 -11 -72
-24 -76 -30 -227 -86 -367 -137 -157 -57 -271 -100 -307 -116 -18 -7 -77 -29
-130 -48 -54 -18 -123 -43 -153 -55 -95 -37 -178 -63 -164 -51 7 6 747 284
1147 431 l57 21 0 320 0 319 -45 105 c-24 57 -80 189 -124 292 -43 103 -179
424 -302 713 -122 289 -233 553 -247 587 -34 83 -54 88 -89 20 -14 -29 -49
-97 -78 -152 -29 -55 -92 -176 -140 -270 -48 -93 -109 -210 -135 -260 -26 -49
-102 -198 -170 -330 -68 -132 -137 -267 -155 -300 -18 -33 -83 -159 -145 -280
-62 -121 -125 -242 -140 -270 -15 -27 -85 -162 -155 -300 -70 -137 -131 -254
-135 -260 -4 -5 -65 -122 -135 -260 -70 -137 -142 -277 -160 -310 -161 -296
-165 -314 -110 -527 20 -79 42 -163 50 -188 16 -54 30 -127 22 -120 -3 3 -30
104 -61 224 -50 197 -64 235 -88 236 -4 0 -39 -60 -78 -133 -39 -72 -80 -148
-91 -167 -11 -19 -23 -43 -26 -52 -3 -10 -9 -18 -14 -18 -13 0 -11 12 4 35 8
11 50 90 95 176 72 138 80 159 72 185 -5 16 -12 41 -15 57 -3 15 -9 27 -14 27
-5 0 -64 32 -131 70 -67 39 -124 70 -126 70 -2 0 -36 20 -76 45 -40 25 -67 45
-60 45 8 0 47 -20 88 -45 40 -25 78 -45 84 -45 5 0 10 -4 10 -10 0 -5 4 -10 8
-10 8 0 63 -30 167 -90 28 -16 53 -29 58 -30 18 0 3 41 -38 108 -25 40 -53 87
-63 105 -9 17 -59 104 -110 192 -52 88 -118 203 -149 255 -70 122 -148 255
-233 400 -37 63 -125 214 -195 335 -71 121 -153 263 -183 315 -31 52 -72 124
-92 160 -20 36 -85 148 -145 250 -60 102 -141 241 -180 310 -40 69 -104 179
-142 245 -38 66 -127 219 -198 340 -70 121 -154 265 -186 320 -32 55 -61 108
-65 118 -3 9 -15 17 -26 17 -10 0 -33 7 -49 16 -20 10 -35 12 -42 6 -7 -5 -66
-38 -132 -72 -66 -35 -156 -82 -200 -105 -142 -75 -266 -140 -440 -230 -93
-48 -174 -91 -180 -95 -5 -4 -73 -40 -150 -80 -77 -39 -158 -82 -180 -94 -22
-12 -56 -28 -75 -36 -19 -8 -37 -17 -40 -21 -7 -10 -131 -71 -136 -67 -3 4 53
36 191 107 50 25 92 48 95 51 3 3 43 25 90 49 47 24 108 56 135 71 28 15 111
59 185 97 160 83 462 242 540 283 30 17 112 60 183 96 109 57 127 70 127 91 0
13 12 35 26 48 l26 24 -16 388 c-9 213 -23 557 -31 763 -29 742 -37 915 -44
928 -5 8 -23 -14 -52 -60z m-1504 -2968 c-16 -11 -37 -20 -45 -20 -8 1 1 9 20
20 46 25 63 25 25 0z m-75 -40 c-20 -13 -33 -13 -25 0 3 6 14 10 23 10 15 0
15 -2 2 -10z m-99 -50 c-59 -33 -78 -39 -43 -14 31 22 75 44 87 44 6 0 -14
-14 -44 -30z m-116 -60 c-3 -5 -12 -10 -18 -10 -7 0 -6 4 3 10 19 12 23 12 15
0z m-81 -173 c16 -11 52 -32 80 -47 28 -14 118 -65 199 -113 81 -48 152 -87
156 -87 5 0 14 -6 20 -14 6 -7 48 -32 93 -56 46 -24 101 -54 123 -68 50 -32
256 -152 261 -152 2 0 33 -18 69 -40 36 -22 68 -40 71 -40 3 0 19 -10 36 -21
16 -12 48 -31 71 -43 38 -19 99 -55 312 -180 94 -55 99 -59 132 -77 15 -8 84
-48 153 -89 69 -40 140 -81 158 -91 80 -46 110 -63 152 -87 25 -13 93 -53 151
-88 59 -35 110 -64 114 -64 3 0 26 -13 50 -30 24 -16 46 -30 50 -30 3 0 22
-11 43 -23 20 -13 57 -35 82 -49 204 -116 265 -152 268 -159 2 -5 9 -9 15 -9
7 0 71 -35 142 -77 72 -43 144 -85 160 -93 17 -8 32 -17 35 -20 5 -5 162 -96
218 -127 15 -8 41 -23 57 -33 17 -11 39 -24 50 -29 40 -19 100 -60 88 -61 -7
0 -36 14 -65 31 -29 18 -78 45 -108 62 -30 17 -67 38 -82 49 -14 10 -29 18
-32 18 -3 0 -46 25 -96 55 -50 30 -92 55 -94 55 -3 0 -189 107 -381 220 -49
29 -110 64 -135 78 -25 14 -61 35 -80 47 -19 12 -56 33 -81 47 -26 15 -153 87
-283 162 -129 75 -240 136 -246 136 -5 0 -10 3 -10 8 0 4 -10 12 -23 18 -12 6
-86 49 -165 95 -79 46 -164 96 -190 110 -26 14 -87 49 -137 79 -49 29 -103 61
-120 70 -16 10 -86 50 -155 90 -69 40 -150 87 -180 103 -30 17 -66 38 -80 47
-14 9 -38 24 -55 32 -16 8 -57 31 -90 50 -33 19 -170 99 -305 178 -135 78
-261 152 -280 162 -19 11 -42 25 -50 32 -8 6 -45 27 -82 46 -36 19 -64 38 -61
42 5 9 12 5 57 -25z m-558 -1534 c-10 -26 -18 -8 -9 23 5 21 8 24 11 11 2 -10
1 -25 -2 -34z m-35 -123 c-14 -55 -27 -96 -29 -90 -5 15 39 190 47 190 4 0 -4
-45 -18 -100z m-54 -192 c-3 -8 -6 -5 -6 6 -1 11 2 17 5 13 3 -3 4 -12 1 -19z
m-28 -111 c-12 -43 -24 -76 -27 -73 -2 3 3 34 12 68 23 83 26 92 31 86 2 -2
-5 -39 -16 -81z m6080 53 c-22 -13 -170 -62 -175 -58 -4 5 156 65 176 67 13 0
13 -1 -1 -9z m-4334 -155 c21 -38 33 -65 28 -60 -13 12 -73 121 -73 131 0 11
5 4 45 -71z m4105 71 c0 -2 -9 -6 -20 -9 -11 -3 -18 -1 -14 4 5 9 34 13 34 5z
m-230 -86 c-8 -5 -22 -9 -30 -9 -10 0 -8 3 5 9 27 12 43 12 25 0z m-5663 -42
c-3 -7 -5 -2 -5 12 0 14 2 19 5 13 2 -7 2 -19 0 -25z m1868 -78 c3 -5 1 -10
-4 -10 -6 0 -11 5 -11 10 0 6 2 10 4 10 3 0 8 -4 11 -10z m25 -51 c0 -6 -4 -7
-10 -4 -5 3 -10 11 -10 16 0 6 5 7 10 4 6 -3 10 -11 10 -16z m-1946 -58 c-4
-17 -9 -30 -11 -27 -3 2 -2 19 2 36 9 41 17 33 9 -9z m2026 -82 c0 -6 7 -17
15 -25 8 -9 15 -23 15 -32 0 -10 -11 0 -25 23 -26 43 -31 60 -15 50 6 -3 10
-11 10 -16z m-2083 -111 c-3 -8 -6 -5 -6 6 -1 11 2 17 5 13 3 -3 4 -12 1 -19z
m-13 -62 c-3 -15 -8 -25 -11 -23 -2 3 -1 17 3 31 3 15 8 25 11 23 2 -3 1 -17
-3 -31z m2194 -11 c-3 -3 -9 2 -12 12 -6 14 -5 15 5 6 7 -7 10 -15 7 -18z
m-2211 -57 c-3 -7 -5 -2 -5 12 0 14 2 19 5 13 2 -7 2 -19 0 -25z m2253 -9 c0
-6 -4 -7 -10 -4 -5 3 -10 11 -10 16 0 6 5 7 10 4 6 -3 10 -11 10 -16z m3877
-95 c-3 -3 -12 -4 -19 -1 -8 3 -5 6 6 6 11 1 17 -2 13 -5z m-7388 -112 c13
-45 21 -85 18 -88 -3 -3 -11 14 -17 37 -6 24 -15 55 -20 69 -15 43 -22 86 -13
75 5 -5 20 -47 32 -93z m1211 48 c-6 -23 -13 -40 -15 -38 -2 2 1 23 7 46 6 24
13 41 15 38 2 -2 -1 -23 -7 -46z m2384 4 c3 -8 2 -12 -4 -9 -6 3 -10 10 -10
16 0 14 7 11 14 -7z m3966 6 c18 -12 2 -12 -25 0 -13 6 -15 9 -5 9 8 0 22 -4
30 -9z m-1616 -137 c-26 -48 -65 -124 -87 -168 -41 -80 -97 -175 -97 -162 0 7
82 169 90 177 3 3 21 37 41 75 71 139 92 176 96 171 2 -2 -17 -44 -43 -93z
m1763 91 c-3 -3 -12 -4 -19 -1 -8 3 -5 6 6 6 11 1 17 -2 13 -5z m-6527 -61
c-11 -17 -11 -17 -6 0 3 10 6 24 7 30 0 9 2 9 5 0 3 -7 0 -20 -6 -30z m6650
27 c11 -8 7 -9 -15 -4 -37 8 -45 14 -19 14 10 0 26 -5 34 -10z m89 -26 c10 -9
-35 -3 -49 6 -11 8 -7 9 15 4 17 -4 32 -8 34 -10z m-4255 -20 c3 -8 2 -12 -4
-9 -6 3 -10 10 -10 16 0 14 7 11 14 -7z m4336 -4 c13 -9 13 -10 0 -9 -8 0 -24
4 -35 9 l-20 9 20 0 c11 0 27 -4 35 -9z m-1603 -107 c14 -54 29 -114 34 -133
16 -65 8 -65 -11 0 -20 65 -60 226 -60 237 0 25 17 -22 37 -104z m1721 72 c35
-10 60 -20 57 -23 -7 -7 -127 29 -140 41 -7 7 -5 8 6 5 8 -3 43 -14 77 -23z
m-8079 -35 c0 -10 -3 -8 -9 5 -12 27 -12 43 0 25 5 -8 9 -22 9 -30z m8221 -11
c10 -6 4 -7 -15 -3 -16 4 -37 11 -45 15 -10 6 -4 7 15 3 17 -4 37 -11 45 -15z
m155 -45 c50 -15 99 -29 110 -31 11 -2 29 -7 40 -13 11 -5 53 -18 93 -30 39
-11 72 -23 72 -26 0 -6 -12 -3 -125 33 -44 14 -87 26 -95 28 -26 5 -184 56
-205 66 l-20 9 20 -4 c11 -3 61 -17 110 -32z m-8345 -43 c11 -37 20 -74 19
-82 0 -8 -11 22 -24 66 -28 91 -26 85 -20 85 2 0 13 -31 25 -69z m38 -142 c-3
-20 -5 -19 -9 9 -3 20 -2 29 4 23 5 -5 7 -19 5 -32z m6356 -46 c3 -16 20 -80
37 -143 17 -63 41 -158 54 -210 13 -52 31 -122 40 -155 9 -33 27 -100 40 -150
60 -239 169 -658 203 -785 54 -200 92 -353 88 -357 -6 -6 -31 85 -136 492 -16
61 -38 146 -50 190 -12 44 -39 148 -60 230 -21 83 -55 213 -75 290 -40 153
-65 247 -120 460 -20 77 -39 148 -42 159 -3 11 -1 16 5 12 5 -3 12 -18 16 -33z
m-716 -18 c-6 -14 -13 -23 -15 -21 -5 5 15 46 22 46 3 0 -1 -11 -7 -25z
m-5599 -65 c0 -9 -4 -8 -9 5 -5 11 -9 27 -9 35 0 9 4 8 9 -5 5 -11 9 -27 9
-35z m21 -64 c0 -26 -6 -18 -14 19 -5 22 -4 26 4 15 5 -8 10 -24 10 -34z
m5530 36 c0 -5 -7 -17 -16 -28 -8 -10 -14 -14 -11 -9 2 6 7 18 10 28 7 17 17
23 17 9z m-37 -72 c-3 -12 -8 -19 -11 -16 -5 6 5 36 12 36 2 0 2 -9 -1 -20z
m-5469 -40 c4 -25 3 -31 -4 -20 -5 8 -10 26 -10 39 0 32 6 24 14 -19z m5408
-72 c-7 -7 -12 -8 -12 -2 0 14 12 26 19 19 2 -3 -1 -11 -7 -17z m-5373 -53 l0
-20 -9 20 c-5 11 -9 27 -9 35 -1 13 0 13 9 0 5 -8 9 -24 9 -35z m5354 20 c-3
-9 -8 -14 -10 -11 -3 3 -2 9 2 15 9 16 15 13 8 -4z m-5336 -97 c-3 -7 -5 -2
-5 12 0 14 2 19 5 13 2 -7 2 -19 0 -25z m690 -110 c-3 -8 -6 -5 -6 6 -1 11 2
17 5 13 3 -3 4 -12 1 -19z m-129 -1135 c-15 -2 -42 -2 -60 0 -18 2 -6 4 27 4
33 0 48 -2 33 -4z m440 -8 c7 -7 -250 5 -258 12 -3 3 53 3 123 0 71 -3 132 -8
135 -12z m3622 -15 c0 -38 -19 -96 -35 -110 -25 -21 -62 -4 -75 36 -10 29 -9
38 2 52 8 9 18 24 21 33 4 12 17 16 46 15 37 -1 41 -3 41 -26z m-3497 13 c-13
-2 -33 -2 -45 0 -13 2 -3 4 22 4 25 0 35 -2 23 -4z m1180 -20 c-24 -2 -62 -2
-85 0 -24 2 -5 4 42 4 47 0 66 -2 43 -4z m4428 -283 c17 -63 41 -158 54 -210
12 -52 33 -131 45 -175 43 -157 60 -228 55 -233 -6 -7 -11 6 -50 158 -19 74
-50 194 -68 265 -19 72 -37 141 -40 155 -3 14 -14 59 -26 100 -11 41 -20 84
-20 95 1 24 8 2 50 -155z m-2431 16 c0 -3 -4 -8 -10 -11 -5 -3 -10 -1 -10 4 0
6 5 11 10 11 6 0 10 -2 10 -4z m-350 -276 c0 -5 -5 -10 -11 -10 -5 0 -7 5 -4
10 3 6 8 10 11 10 2 0 4 -4 4 -10z m-50 -45 c-7 -9 -15 -13 -19 -10 -3 3 1 10
9 15 21 14 24 12 10 -5z m-30 -19 c0 -3 -4 -8 -10 -11 -5 -3 -10 -1 -10 4 0 6
5 11 10 11 6 0 10 -2 10 -4z m-139 -117 c-18 -16 -66 -56 -105 -87 -39 -31
-74 -61 -78 -67 -4 -5 -8 -7 -8 -2 0 4 -9 -2 -20 -13 -11 -11 -26 -20 -32 -20
-17 1 67 76 172 155 90 68 127 85 71 34z m-265 -216 c-10 -10 -19 5 -10 18 6
11 8 11 12 0 2 -7 1 -15 -2 -18z m3479 -167 c25 -99 44 -184 42 -190 -2 -6 -7
5 -11 24 -4 19 -17 64 -27 100 -27 88 -69 287 -54 255 2 -5 25 -91 50 -189z
m-3575 94 c-39 -33 -74 -60 -76 -60 -14 0 16 32 68 73 87 68 93 58 8 -13z
m-100 -75 c-7 -8 -18 -15 -24 -15 -6 0 -2 7 8 15 25 19 32 19 16 0z m967 -37
c-3 -8 -6 -5 -6 6 -1 11 2 17 5 13 3 -3 4 -12 1 -19z m-130 -420 c-3 -7 -5 -2
-5 12 0 14 2 19 5 13 2 -7 2 -19 0 -25z m-30 -80 c-3 -8 -6 -5 -6 6 -1 11 2
17 5 13 3 -3 4 -12 1 -19z"/>
<path d="M1984 9843 c-71 -29 -165 -69 -209 -88 -44 -19 -183 -77 -310 -131
-126 -53 -264 -111 -305 -129 -41 -19 -109 -47 -150 -64 -41 -16 -111 -45
-155 -64 -44 -19 -163 -69 -265 -112 -102 -42 -198 -83 -215 -90 -16 -7 -79
-34 -140 -60 -60 -25 -138 -58 -173 -73 l-62 -27 2 -454 3 -454 110 -65 c118
-70 875 -521 1195 -712 107 -64 285 -170 395 -235 110 -65 272 -162 360 -215
238 -143 271 -161 289 -154 20 8 20 44 1 319 -8 116 -22 316 -30 445 -8 129
-20 303 -25 385 -6 83 -17 254 -25 380 -8 127 -21 331 -30 455 -8 124 -24 365
-35 535 -11 171 -25 371 -30 445 -5 74 -10 147 -10 162 0 19 -8 30 -29 41 -27
14 -35 12 -157 -40z"/>
<path d="M11974 8992 c-117 -210 -454 -808 -534 -947 -99 -172 -160 -285 -158
-293 1 -4 -4 -20 -10 -35 -16 -37 -15 -41 7 -90 11 -23 58 -134 106 -247 186
-441 280 -662 352 -830 41 -96 91 -213 110 -260 18 -47 43 -105 55 -130 11
-25 32 -74 45 -109 56 -149 52 -250 53 1432 0 851 -1 1547 -2 1547 -2 0 -12
-17 -24 -38z m-31 -1219 c-13 -2 -33 -2 -45 0 -13 2 -3 4 22 4 25 0 35 -2 23
-4z m-100 -10 c-13 -2 -33 -2 -45 0 -13 2 -3 4 22 4 25 0 35 -2 23 -4z m-100
-10 c-13 -2 -33 -2 -45 0 -13 2 -3 4 22 4 25 0 35 -2 23 -4z m-120 -10 c-13
-2 -33 -2 -45 0 -13 2 -3 4 22 4 25 0 35 -2 23 -4z m-90 -10 c-13 -2 -35 -2
-50 0 -16 2 -5 4 22 4 28 0 40 -2 28 -4z m-105 -10 c-16 -2 -40 -2 -55 0 -16
2 -3 4 27 4 30 0 43 -2 28 -4z"/>
<path d="M0 6811 c0 -694 3 -1261 6 -1261 6 0 352 162 604 282 69 33 199 95
290 138 91 43 215 101 275 130 61 29 146 69 190 90 106 49 232 109 385 182 69
33 177 84 240 113 63 30 147 69 185 88 39 19 86 42 107 51 47 23 55 50 20 74
-15 11 -196 119 -402 242 -206 123 -499 297 -650 388 -151 90 -340 203 -420
249 -80 47 -161 95 -180 108 -26 17 -596 356 -642 382 -5 2 -8 -563 -8 -1256z"/>
<path d="M2235 6574 c-38 -19 -171 -83 -295 -141 -124 -58 -268 -126 -320
-151 -52 -24 -135 -64 -185 -87 -49 -23 -133 -63 -185 -87 -240 -115 -326
-155 -475 -225 -88 -42 -200 -95 -250 -118 -49 -24 -144 -68 -210 -99 -66 -32
-164 -78 -217 -103 l-98 -47 0 -397 0 -398 392 -791 c330 -666 395 -790 412
-790 18 0 40 45 145 283 168 381 208 471 242 545 16 35 29 65 29 67 0 3 108
247 152 344 11 25 45 102 75 171 30 69 97 220 148 335 51 116 118 266 148 335
30 69 64 145 75 170 11 25 46 104 78 175 31 72 67 153 79 180 12 28 55 124 95
215 39 91 90 206 112 255 67 150 168 384 168 390 0 14 -52 0 -115 -31z"/>
<path d="M1 4003 l-1 -661 48 -16 c226 -73 688 -216 698 -216 8 0 14 6 14 14
0 8 -171 358 -379 778 l-379 763 -1 -662z"/>
<path d="M0 2934 l0 -376 38 24 c20 12 116 75 212 138 96 64 246 163 332 220
111 72 158 109 158 122 0 10 -6 20 -12 23 -7 2 -101 31 -208 65 -107 34 -265
84 -350 111 -85 27 -158 49 -162 49 -5 0 -8 -169 -8 -376z"/>
<path d="M675 2972 c-38 -26 -206 -137 -373 -246 l-302 -199 0 -1168 0 -1167
145 -96 146 -96 390 0 390 0 -6 78 c-3 42 -10 115 -15 162 -5 47 -12 119 -15
160 -3 41 -10 120 -16 175 -5 55 -23 251 -39 435 -16 184 -34 385 -40 445 -36
382 -39 417 -95 1075 -36 423 -42 472 -57 482 -23 14 -42 7 -113 -40z"/>
<path d="M11915 1083 c-97 -131 -339 -458 -450 -608 -45 -60 -141 -190 -213
-287 -73 -98 -132 -180 -132 -183 0 -3 198 -5 440 -5 l440 0 0 595 c0 327 -1
595 -3 595 -1 0 -38 -48 -82 -107z"/>
<path d="M0 80 l0 -80 117 0 c64 0 114 2 112 4 -2 2 -55 38 -116 79 l-113 76
0 -79z"/>
</g>
</svg>
